<svg width="43" height="19" viewBox="0 0 43 19" fill="none" xmlns="http://www.w3.org/2000/svg">
<path d="M37.8103 1.48276L36.3276 2.96552L33.3621 3.7069L34.1034 5.18965L33.3621 6.67241L34.8448 8.89655V11.1207L37.8103 10.3793L40.0345 6.67241L37.8103 1.48276Z" fill="#FDC5CA"/>
<path d="M37.069 0L36.5246 0.544334C36.2666 0.802358 36.1128 1.14647 36.0926 1.51081C36.0724 1.87515 36.1873 2.23414 36.4153 2.51908C37.0638 3.32979 37.4857 4.29805 37.6379 5.32506C37.7901 6.35208 37.6671 7.40108 37.2816 8.36505L37.069 8.89655L41.5172 5.18966L37.069 0Z" fill="#BA8B5D"/>
<path d="M4.44824 14.8276L10.595 3.09288C10.8186 2.66605 11.1428 2.30012 11.5396 2.02676C11.9364 1.75341 12.3939 1.58087 12.8723 1.52407C13.3508 1.46726 13.836 1.52791 14.2857 1.70077C14.7355 1.87362 15.1364 2.15347 15.4537 2.5161L22.9827 11.1207V18.5345C21.639 18.5345 20.3206 18.1693 19.1684 17.478C18.0161 16.7866 17.0735 15.7951 16.4411 14.6095L12.6034 7.41378L12.1609 9.62621C12.0701 10.0802 11.8609 10.5021 11.5545 10.8492C11.2481 11.1963 10.8554 11.4562 10.4162 11.6026C9.9094 11.7716 9.46619 12.091 9.14567 12.5184L7.41376 14.8276L5.931 15.569L4.44824 14.8276Z" fill="#FDC5CA"/>
<path d="M7.41379 14.8276V18.5345H1.25209e-06C-0.000582643 17.8868 0.203066 17.2554 0.581984 16.7301C0.960934 16.2047 1.49555 15.8118 2.11015 15.607L4.44828 14.8276H7.41379Z" fill="#529DDF"/>
<path d="M22.9827 18.5345H20.1799C19.4313 18.5345 18.6915 18.3725 18.0114 18.0597C17.3312 17.7469 16.7268 17.2906 16.2396 16.7222L13.3447 13.3448L19.1824 6.7775L22.9827 11.1207V18.5345Z" fill="#68737F"/>
<path d="M42.834 7.14598C42.8341 7.27155 42.8188 7.39665 42.7886 7.51853C42.4415 8.90528 41.7243 10.1718 40.7137 11.1828L39.2078 12.6887C37.7934 14.103 36.1363 15.2516 34.3156 16.0796L32.2026 17.0397C30.035 18.0249 27.6815 18.5346 25.3004 18.5345H22.9827V11.1207L29.6551 10.3793L33.362 8.89657H35.5861L37.8538 7.4796L40.4783 5.8393C40.7114 5.69343 40.9793 5.61267 41.2542 5.60542C41.5291 5.59818 41.8009 5.6647 42.0414 5.79809C42.2819 5.93148 42.4822 6.12685 42.6216 6.36389C42.761 6.60094 42.8344 6.87099 42.834 7.14598Z" fill="#F4DB71"/>
<path d="M42.834 7.14598C42.834 7.27155 42.8188 7.39665 42.7886 7.51853C42.4414 8.90528 41.7243 10.1718 40.7136 11.1828L40.4792 11.4173L37.8538 7.4796L40.4782 5.8393C40.7114 5.69343 40.9793 5.61267 41.2542 5.60542C41.5291 5.59818 41.8009 5.6647 42.0414 5.79809C42.2818 5.93148 42.4822 6.12685 42.6216 6.36389C42.761 6.60094 42.8343 6.87099 42.834 7.14598Z" fill="#FDC5CA"/>
<path d="M35.5862 8.89655L34.1035 11.8621L32.7773 11.1985L33.9283 8.89655H35.5862Z" fill="#65B897"/>
<path d="M7.41379 17.7931V18.5345H0C0.000202257 18.2846 0.030382 18.0357 0.0898922 17.7931H7.41379Z" fill="#D4E4F0"/>
</svg>
