<svg width="42" height="56" viewBox="0 0 42 56" fill="none" xmlns="http://www.w3.org/2000/svg">
<path d="M41.5617 2.65564H0.438477L5.77049 53.6601V53.6627C5.77049 54.6674 11.6944 55.48 21.0012 55.48C30.308 55.48 36.2319 54.6661 36.2319 53.6627C36.2319 53.6592 36.2319 53.6562 36.2319 53.6527L41.5617 2.65564Z" fill="#F0F5F9"/>
<path d="M3.73828 18.6325L7.31422 54.453C8.73044 54.9016 13.1573 55.4808 21.0007 55.4808C28.8441 55.4808 33.2662 54.9033 34.685 54.4525L38.2605 18.632L3.73828 18.6325Z" fill="#5FC4F8"/>
<path d="M21.0003 20.2776C30.5336 20.2776 38.2619 19.5411 38.2619 18.6325C38.2619 17.7239 30.5336 16.9874 21.0003 16.9874C11.467 16.9874 3.73877 17.7239 3.73877 18.6325C3.73877 19.5411 11.467 20.2776 21.0003 20.2776Z" fill="#3DBCE9"/>
<g opacity="0.5">
<path opacity="0.5" d="M23.7258 55.4647C23.0181 55.4757 22.2887 55.4811 21.5377 55.4808C17.8298 55.5193 14.1229 55.3407 10.4359 54.9462C7.78871 54.6163 6.30828 54.1625 6.30828 53.6601L0.97583 2.65564H5.35729L10.6915 53.6601C10.6915 54.1625 12.1715 54.6163 14.8135 54.9462C17.7733 55.273 20.748 55.4461 23.7258 55.4647Z" fill="white"/>
</g>
<g opacity="0.5">
<path opacity="0.5" d="M31.594 55.4699C31.1353 55.4808 30.6648 55.4808 30.1895 55.4808C26.4815 55.5192 22.7745 55.3407 19.0874 54.9462C16.4401 54.6163 14.9601 54.1625 14.9601 53.6601L9.62769 2.65564H12.3514L17.6829 53.6601C17.6829 54.1625 19.1629 54.6163 21.8102 54.9462C25.0593 55.3 28.3256 55.4748 31.594 55.4699Z" fill="white"/>
</g>
<path d="M21.0015 4.87433C32.3575 4.87433 41.5634 3.88158 41.5634 2.65695C41.5634 1.43233 32.3575 0.439575 21.0015 0.439575C9.64555 0.439575 0.439697 1.43233 0.439697 2.65695C0.439697 3.88158 9.64555 4.87433 21.0015 4.87433Z" fill="#F0F5F9"/>
<path d="M21.0013 5.31119C16.1315 5.34125 11.2634 5.12372 6.41578 4.65943C0.00390625 3.96792 0.00390625 3.11522 0.00390625 2.65698C0.00390625 2.19873 0.00390625 1.34647 6.41578 0.654959C11.2634 0.190281 16.1315 -0.0273985 21.0013 0.00276334C25.8716 -0.0274578 30.7403 0.190222 35.5885 0.654959C42.0004 1.34647 42.0004 2.19873 42.0004 2.65698C42.0004 3.11522 42.0004 3.96748 35.5885 4.65943C30.7403 5.12378 25.8716 5.34131 21.0013 5.31119ZM0.939171 2.65698C1.92336 3.4127 9.3002 4.43752 21.0021 4.43752C32.7041 4.43752 40.0809 3.4127 41.0651 2.65698C40.0814 1.90169 32.7045 0.876434 21.0013 0.876434C9.29802 0.876434 1.92292 1.90169 0.939171 2.65698Z" fill="#2F3A5A"/>
<path d="M21.0007 55.9177C17.2737 55.9566 13.5477 55.7778 9.8417 55.3821C5.95037 54.8981 5.35671 54.2625 5.33443 53.6986L0.0041613 2.70152C-0.00390946 2.64346 -0.000215251 2.58438 0.0150245 2.52778C0.0302643 2.47119 0.0567377 2.41824 0.0928681 2.37208C0.128998 2.32593 0.174047 2.28752 0.225331 2.25915C0.276614 2.23077 0.333085 2.213 0.391379 2.2069C0.449672 2.2008 0.508597 2.2065 0.564644 2.22364C0.620692 2.24079 0.672715 2.26905 0.717615 2.30672C0.762516 2.34439 0.799376 2.39072 0.826 2.44293C0.852625 2.49515 0.86847 2.55219 0.87259 2.61065L6.20198 53.5819C6.20375 53.59 6.20507 53.5982 6.20591 53.6064C6.62877 54.0886 10.7149 55.044 21.0007 55.044C31.2663 55.044 35.3559 54.0926 35.7945 53.6099L41.1274 2.61065C41.1315 2.55219 41.1474 2.49515 41.174 2.44293C41.2006 2.39072 41.2375 2.34439 41.2824 2.30672C41.3273 2.26905 41.3793 2.24079 41.4354 2.22364C41.4914 2.2065 41.5503 2.2008 41.6086 2.2069C41.6669 2.213 41.7234 2.23077 41.7747 2.25915C41.826 2.28752 41.871 2.32593 41.9071 2.37208C41.9433 2.41824 41.9697 2.47119 41.985 2.52778C42.0002 2.58438 42.0039 2.64346 41.9958 2.70152L36.6686 53.6597V53.6632C36.6686 54.2354 36.1331 54.8863 32.1605 55.3817C28.4542 55.7775 24.7279 55.9565 21.0007 55.9177Z" fill="#2F3A5A"/>
</svg>
