<svg width="51" height="51" viewBox="0 0 51 51" fill="none" xmlns="http://www.w3.org/2000/svg">
<path d="M27.8906 19.125V27.0938H23.9062L19.9597 27.9912L6.375 31.0781L3.98438 35.8594H2.39062V27.8906L4.04315 27.1914L17.5213 21.4887L22.5137 19.377C22.9067 19.2108 23.3291 19.1251 23.7558 19.125H27.8906Z" fill="#FFCEB6"/>
<path d="M27.8906 19.125H38.25C39.0954 19.125 39.9061 19.4608 40.5039 20.0586C41.1017 20.6564 41.4375 21.4671 41.4375 22.3125V23.9062C41.4375 24.7516 41.1017 25.5624 40.5039 26.1602C39.9061 26.7579 39.0954 27.0938 38.25 27.0938H27.8906V19.125Z" fill="#F4DB71"/>
<path d="M47.0156 21.5156L48.1143 20.417C48.2712 20.26 48.3957 20.0737 48.4807 19.8686C48.5656 19.6635 48.6094 19.4437 48.6094 19.2217C48.6094 18.7733 48.4313 18.3434 48.1143 18.0264C47.7972 17.7093 47.3673 17.5313 46.919 17.5312H43.5138C42.63 17.5313 41.7598 17.313 40.9806 16.896C40.2014 16.479 39.5371 15.876 39.0469 15.1406V16.6555C39.0469 17.5766 39.366 18.4692 39.95 19.1815C40.5339 19.8938 41.3466 20.3818 42.2499 20.5625L43.0312 20.7188L47.0156 21.5156Z" fill="#B1712C"/>
<path d="M43.8282 21.5156L45.4219 23.1094V25.5H43.0312C42.3972 25.5 41.7892 25.2481 41.3408 24.7998C40.8925 24.3515 40.6406 23.7434 40.6406 23.1094C40.6406 22.4753 40.8925 21.8673 41.3408 21.4189C41.7892 20.9706 42.3972 20.7188 43.0312 20.7188H43.8281L43.8282 21.5156Z" fill="#FFCEB6"/>
<path d="M45.4219 25.5C46.0559 25.5 46.664 25.2481 47.1123 24.7998C47.5606 24.3515 47.8125 23.7434 47.8125 23.1094C47.8125 22.4753 47.5606 21.8673 47.1123 21.4189C46.664 20.9706 46.0559 20.7188 45.4219 20.7188H43.8281L43.8282 21.5156L45.4219 23.1094V25.5Z" fill="#C78640"/>
<path d="M41.4375 31.875L47.3613 33.1914C47.7153 33.2701 48.0319 33.4671 48.2588 33.75C48.4857 34.0328 48.6094 34.3846 48.6094 34.7472V35.8594H40.0662C39.3294 35.8594 38.6152 35.6041 38.0454 35.1369C37.4755 34.6697 37.0851 34.0196 36.9406 33.297L35.7495 27.3413C35.6662 26.9247 35.6763 26.4947 35.7792 26.0825C35.8822 25.6703 36.0753 25.286 36.3447 24.9574C36.614 24.6288 36.953 24.3641 37.337 24.1823C37.7211 24.0005 38.1407 23.9063 38.5656 23.9063H38.5656C38.9427 23.9062 39.3162 23.9805 39.6646 24.1249C40.0131 24.2692 40.3296 24.4807 40.5963 24.7474C40.863 25.0141 41.0745 25.3307 41.2189 25.6791C41.3632 26.0275 41.4375 26.401 41.4375 26.7781V31.875Z" fill="#FFCEB6"/>
<path d="M6.375 31.0781L3.98438 35.8594H2.39062V27.8906L4.04314 27.1913L6.375 31.0781Z" fill="#E0EDFF"/>
<path d="M27.8906 19.125V27.0938H23.9062L19.9597 27.9912L17.5212 21.4887L22.5137 19.377C22.9067 19.2108 23.3291 19.1251 23.7558 19.125H27.8906Z" fill="#68737F"/>
</svg>
