<svg width="43" height="23" viewBox="0 0 43 23" fill="none" xmlns="http://www.w3.org/2000/svg">
<path d="M39.8348 5.11839L37.8103 8.15517L37.0689 7.41379L35.5861 8.15517L34.8448 7.41379H31.8793V4.44827L34.1034 2.96552L38.5517 2.22414L40.0344 4.44827L39.8348 5.11839Z" fill="#FDC5CA"/>
<path d="M-9.34601e-05 22.9828H4.44818V22.2446C4.44818 22.0208 4.38588 21.8015 4.26826 21.6112C4.15063 21.4209 3.98233 21.2671 3.78222 21.167L2.96542 20.7586V20.0172L10.3792 18.5345L16.3103 16.3103L16.5753 16.2047C18.8597 15.2904 21.014 14.0796 22.9827 12.6035L22.6611 11.6397L21.4999 8.15518C20.5658 7.92136 19.5931 7.8855 18.6443 8.04988C17.6955 8.21427 16.7915 8.57527 15.9905 9.1097L14.0861 10.3793L10.9112 13.0251C10.0715 13.7252 9.38557 14.5912 8.89646 15.569C7.97451 15.3383 7.01174 15.3238 6.08325 15.5265C5.15476 15.7292 4.28564 16.1437 3.5437 16.7376L2.22404 17.7931L1.48267 17.0517H-9.34601e-05V22.9828Z" fill="#FDC5CA"/>
<path d="M21.5001 8.15517L22.6613 11.6397L22.9828 12.6034L25.207 11.8621H28.9139L32.7264 9.95579L32.6208 9.63793L33.2111 9.04759C33.4941 8.76467 33.7185 8.42876 33.8717 8.05906C34.0248 7.68936 34.1036 7.29312 34.1035 6.89296V6.8207C34.1035 6.31906 33.9796 5.82519 33.7429 5.3829C33.5063 4.9406 33.1641 4.56354 32.7468 4.28517L32.6467 4.21845C32.1461 3.88472 31.558 3.70672 30.9564 3.70689H30.1964C28.8828 3.70696 27.6046 4.13293 26.5535 4.92091L25.207 5.93103L21.5001 8.15517Z" fill="#F4DB71"/>
<path d="M34.1034 2.96552C34.298 3.25774 34.5483 3.50874 34.84 3.70417C35.1317 3.8996 35.459 4.03563 35.8032 4.10449C36.1475 4.17334 36.502 4.17366 36.8464 4.10544C37.1908 4.03722 37.5183 3.90179 37.8103 3.7069L39.2384 5.49177L39.6434 5.99868C39.786 6.17679 39.9646 6.32282 40.1674 6.42726C40.3703 6.53169 40.5928 6.59218 40.8207 6.60477C41.0485 6.61737 41.2764 6.58178 41.4895 6.50034C41.7026 6.4189 41.8962 6.29343 42.0575 6.13213L43 5.18966L42.368 4.45291L38.5517 0L34.1034 2.96552Z" fill="#BA8B5D"/>
<path d="M39.2384 5.49176L39.6434 5.99868C39.786 6.17679 39.9646 6.32282 40.1674 6.42726C40.3703 6.53169 40.5928 6.59218 40.8207 6.60477C41.0485 6.61736 41.2764 6.58178 41.4895 6.50034C41.7026 6.41889 41.8962 6.29343 42.0575 6.13212L43 5.18965L42.368 4.45291L42.3624 4.44827L41.4209 5.39074C41.1351 5.67659 40.7529 5.84541 40.3492 5.86409C39.9455 5.88278 39.5493 5.74999 39.2384 5.49176Z" fill="#9F764A"/>
<path d="M22.6611 11.6397L22.9827 12.6035L25.2068 11.8621H28.9137L32.7262 9.95581L32.6206 9.63794L33.0107 9.24779L29.6551 6.67242L27.5857 9.54527L27.4615 10.9048H25.2374L22.6611 11.6397Z" fill="#D6323F"/>
<path d="M28.4059 17.9015L28.7803 21.6473C28.8169 22.0132 28.9881 22.3525 29.2607 22.5993C29.5334 22.846 29.8879 22.9827 30.2557 22.9828H35.5862C35.5862 22.7476 35.5399 22.5148 35.4499 22.2976C35.3599 22.0804 35.228 21.8831 35.0617 21.7168L34.6279 21.2832C34.4618 21.1168 34.2644 20.9849 34.0472 20.8949C33.83 20.8049 33.5972 20.7586 33.362 20.7586H31.1379L32.2185 16.4355C32.4774 15.3978 32.3571 14.3017 31.8793 13.3448C32.3252 12.8994 32.638 12.3385 32.7827 11.7251C32.9275 11.1117 32.8983 10.4701 32.6985 9.8724L32.6207 9.63794L33.0553 9.20331C33.7264 8.53198 34.1034 7.62164 34.1034 6.67242L30.3854 7.36747L30.037 8.23672C29.6727 9.1477 28.7247 9.4109 28.6561 10.3793C28.6404 10.6036 28.6324 10.8282 28.632 11.053C28.6321 11.8256 28.7267 12.5953 28.9138 13.3448C28.4253 14.811 28.2522 16.3638 28.4059 17.9015Z" fill="#FDC5CA"/>
<path d="M32.6986 9.8724L32.6208 9.63794L33.0554 9.20331C33.7264 8.53198 34.1035 7.62164 34.1035 6.67242H29.6552L29.3077 7.54078C28.9448 8.4475 28.7251 9.40511 28.6562 10.3793H32.8256C32.7963 10.2073 32.7538 10.0379 32.6986 9.8724Z" fill="#F4DB71"/>
<path d="M14.0861 10.3793L15.8664 15.1269L16.3103 16.3103L16.5753 16.2047C18.8597 15.2904 21.014 14.0796 22.9827 12.6035L22.6611 11.6397L21.4999 8.15518C20.5658 7.92136 19.5931 7.8855 18.6443 8.04988C17.6955 8.21427 16.7915 8.57527 15.9905 9.1097L14.0861 10.3793Z" fill="#68737F"/>
<path d="M2.96543 20.0172L10.3792 18.5345L16.3103 16.3103L16.5753 16.2047C18.8597 15.2903 21.014 14.0796 22.9827 12.6034L22.6611 11.6396L15.8664 15.1269L10.1475 17.6077L2.23794 19.3155L2.96543 20.0172Z" fill="#FC979E"/>
<path d="M15.8663 15.1269L16.3103 16.3103L16.5753 16.2047C18.8597 15.2903 21.014 14.0796 22.9827 12.6034L22.6611 11.6396L15.8663 15.1269Z" fill="#4F5761"/>
<path d="M28.4061 17.9015L28.7805 21.6473C28.8171 22.0132 28.9883 22.3525 29.261 22.5992C29.5336 22.846 29.8882 22.9827 30.2559 22.9827H31.759C31.1723 22.9827 30.6048 22.7737 30.1583 22.3931C29.7118 22.0125 29.4156 21.4852 29.3227 20.9059L29.2328 20.3434C29.1248 19.6714 29.0706 18.9918 29.0706 18.3111C29.0707 16.617 29.4058 14.9396 30.0567 13.3754C29.464 12.5507 29.0173 11.6304 28.7361 10.6545L28.6564 10.3793C28.6406 10.6036 28.6326 10.8281 28.6323 11.053C28.6323 11.8256 28.7269 12.5952 28.914 13.3448C28.4255 14.811 28.2524 16.3638 28.4061 17.9015Z" fill="#FC979E"/>
<path d="M-3.38554e-05 17.0517V22.9828H4.44824V22.2441C4.44778 22.0206 4.38524 21.8015 4.26759 21.6114C4.14994 21.4212 3.98181 21.2675 3.78193 21.1673L2.96548 20.7586V20.0172L2.2241 17.7931L1.48272 17.0517H-3.38554e-05Z" fill="#529DDF"/>
<path d="M1.48274 21.5H4.1897C4.08026 21.3601 3.94095 21.2465 3.78195 21.1673L2.9655 20.7586V20.0172C2.77076 20.0172 2.57792 20.0555 2.398 20.13C2.21808 20.2045 2.05461 20.3137 1.91691 20.4514C1.77921 20.5891 1.66999 20.7526 1.5955 20.9325C1.521 21.1124 1.48268 21.3053 1.48274 21.5Z" fill="#4384C3"/>
<path d="M4.44824 22.9828V22.2414H0.741346V17.0517H-3.38554e-05V22.9828H4.44824Z" fill="#D4E4F0"/>
</svg>
