<svg width="25" height="38" viewBox="0 0 25 38" fill="none" xmlns="http://www.w3.org/2000/svg">
<path d="M5.18962 2.22414L4.44824 3.7069L5.18962 4.44827L5.931 5.93103H7.41376V8.89655L10.3793 6.67241L9.6379 4.44827L8.15514 1.48276L5.18962 2.22414Z" fill="#FDC5CA"/>
<path d="M2.96542 7.41379L5.18956 8.15517V9.63793L7.4137 10.3793V13.3448L1.48267 10.3793L2.96542 7.41379Z" fill="#FDC5CA"/>
<path d="M6.67241 34.1035L5.85411 35.741L5.18966 37.069L0 34.1035C0.0442336 34.0154 0.0931121 33.9297 0.14643 33.8468C0.389856 33.4707 0.723511 33.1615 1.117 32.9473C1.51049 32.7332 1.9513 32.6209 2.39929 32.6207H4.44828L6.67241 34.1035Z" fill="#529DDF"/>
<path d="M24.4655 27.431V33.3621C24.0278 33.3622 23.6 33.231 23.2376 32.9855C22.8751 32.74 22.5946 32.3915 22.4323 31.985L21.5 29.6552V27.431H24.4655Z" fill="#529DDF"/>
<path d="M14.0862 16.3103C14.086 18.6836 13.1433 20.9596 11.4654 22.638L10.8241 23.2793L8.15514 25.9483L8.89652 28.1724L6.67238 34.1034L4.44824 32.6207L5.09138 25.5433C5.15634 24.8286 5.32492 24.1271 5.59183 23.461L6.04314 22.3312L8.15514 17.0517L14.0862 16.3103Z" fill="#FDC5CA"/>
<path d="M21.5001 27.431V29.6552L14.0307 27.7878C13.5872 27.6768 13.1754 27.4648 12.8274 27.1683C12.4794 26.8719 12.2045 26.4991 12.0243 26.0789L11.5573 24.9891L10.8242 23.2793L8.15527 17.0517L14.0863 16.3103C15.0607 18.2609 15.5683 20.4113 15.5691 22.5916V24.4655H17.7932L21.5001 27.431Z" fill="#FDC5CA"/>
<path d="M15.569 22.5916V22.9827L11.5572 24.9891L11.4534 24.7472L10.8242 23.2793L9.22652 24.877L6.04321 22.3312L8.15522 17.0517L14.0863 16.3103C15.0607 18.2609 15.5683 20.4113 15.569 22.5916Z" fill="#68737F"/>
<path d="M13.8405 22.0616C13.4536 22.6465 13.009 23.191 12.5134 23.6871L11.4532 24.7472L10.824 23.2793L11.4653 22.638C11.8903 22.2127 12.2716 21.7458 12.6033 21.2442L13.8405 22.0616Z" fill="#65B897"/>
<path d="M6.04329 9.92242L6.57987 11.5775L5.38745 12.3316L7.41392 13.3448V10.3793L6.04329 9.92242Z" fill="#FC979E"/>
<path d="M7.03277 8.57794C7.14563 8.01364 7.423 7.49538 7.82992 7.08845C8.23684 6.68153 8.75511 6.40416 9.31941 6.2913L10.099 6.13538C10.4049 6.0742 10.7219 6.10081 11.0134 6.21216C11.3048 6.32351 11.5588 6.51503 11.746 6.76462L12.223 7.40066C12.9569 8.37925 13.4093 9.53995 13.531 10.7571L14.0863 16.3103L8.15526 17.0517L7.07101 12.1726C6.80823 10.9901 6.79521 9.76576 7.03277 8.57794Z" fill="#F4DB71"/>
<path d="M10.4182 6.29203C9.98364 6.40069 9.59781 6.6515 9.32212 7.0046C9.04642 7.35771 8.89667 7.79284 8.89667 8.24083V8.24587C8.89667 8.65478 9.02146 9.05396 9.25438 9.39005C9.48729 9.72615 9.81723 9.98316 10.2001 10.1267L10.8737 10.3793L12.6036 11.8621C11.6285 11.8621 10.6668 12.0891 9.79459 12.5252L9.63805 12.6035L8.15529 11.8621L5.93115 12.6035L6.67253 15.569L14.323 13.8035C14.5509 13.7509 14.7632 13.6451 14.9424 13.4948C15.1217 13.3444 15.2628 13.1539 15.3543 12.9386C15.4458 12.7233 15.485 12.4894 15.4688 12.256C15.4526 12.0226 15.3814 11.7964 15.2611 11.5958L12.628 7.20732C12.4064 6.83805 12.072 6.54976 11.6742 6.38496C11.2763 6.22017 10.836 6.18759 10.4182 6.29203Z" fill="#FDC5CA"/>
<path d="M9.63799 4.44828L7.41385 2.22414H5.18971C4.59984 2.22414 4.03412 1.98981 3.61701 1.5727C3.1999 1.1556 2.96558 0.589878 2.96558 0H8.89661L9.63799 4.44828Z" fill="#BA8B5D"/>
<path d="M5.85411 35.741L5.18965 37.069L0 34.1034L0.14643 33.8467C0.373232 33.4951 0.679579 33.2018 1.04071 32.9905L5.85411 35.741Z" fill="#D4E4F0"/>
<path d="M24.4654 27.431V33.3621C23.9162 33.362 23.387 33.1556 22.9827 32.7838V27.431H24.4654Z" fill="#D4E4F0"/>
</svg>
